<svg width="15" height="15" viewBox="0 0 15 15" fill="none" xmlns="http://www.w3.org/2000/svg">
<g clip-path="url(#clip0_14_3307)">
<path d="M7.9479 0.778949C7.90653 0.695482 7.84267 0.62523 7.76352 0.576116C7.68436 0.527001 7.59306 0.500977 7.4999 0.500977C7.40674 0.500977 7.31544 0.527001 7.23629 0.576116C7.15713 0.62523 7.09327 0.695482 7.0519 0.778949L5.0049 4.92595L0.427901 5.59095C0.335551 5.60436 0.248797 5.64335 0.177453 5.7035C0.10611 5.76365 0.0530243 5.84257 0.024202 5.93133C-0.00462029 6.02009 -0.00802884 6.11514 0.014362 6.20573C0.0367528 6.29632 0.0840492 6.37884 0.150901 6.44395L3.4629 9.67195L2.6809 14.2309C2.66521 14.3228 2.67552 14.4173 2.71066 14.5036C2.74581 14.5899 2.80438 14.6647 2.87978 14.7195C2.95518 14.7743 3.0444 14.807 3.13736 14.8138C3.23033 14.8206 3.32334 14.8012 3.4059 14.7579L7.4999 12.6049L11.5939 14.7579C11.6765 14.8012 11.7695 14.8206 11.8624 14.8138C11.9554 14.807 12.0446 14.7743 12.12 14.7195C12.1954 14.6647 12.254 14.5899 12.2891 14.5036C12.3243 14.4173 12.3346 14.3228 12.3189 14.2309L11.5369 9.67095L14.8489 6.44395C14.9158 6.37884 14.963 6.29632 14.9854 6.20573C15.0078 6.11514 15.0044 6.02009 14.9756 5.93133C14.9468 5.84257 14.8937 5.76365 14.8223 5.7035C14.751 5.64335 14.6643 5.60436 14.5719 5.59095L9.9949 4.92595L7.9479 0.778949Z" fill="#F24E1E"/>
</g>
<defs>
<clipPath id="clip0_14_3307">
<rect width="15" height="15" fill="white"/>
</clipPath>
</defs>
</svg>
