<svg width="20" height="20" viewBox="0 0 20 20" fill="none" xmlns="http://www.w3.org/2000/svg">
<path d="M9.41659 16.0833C9.26381 15.9306 9.18381 15.7361 9.17659 15.5C9.16937 15.2639 9.24242 15.0694 9.39575 14.9167L13.4791 10.8333H4.16659C3.93048 10.8333 3.73242 10.7533 3.57242 10.5933C3.41242 10.4333 3.3327 10.2356 3.33325 10C3.33325 9.76389 3.41325 9.56583 3.57325 9.40583C3.73325 9.24583 3.93103 9.16611 4.16659 9.16667H13.4791L9.39575 5.08333C9.24298 4.93056 9.16992 4.73611 9.17659 4.5C9.18325 4.26389 9.26325 4.06944 9.41659 3.91667C9.56937 3.76389 9.76381 3.6875 9.99992 3.6875C10.236 3.6875 10.4305 3.76389 10.5833 3.91667L16.0833 9.41667C16.1666 9.48611 16.2258 9.57306 16.2608 9.6775C16.2958 9.78194 16.313 9.88944 16.3124 10C16.3124 10.1111 16.2952 10.2153 16.2608 10.3125C16.2263 10.4097 16.1671 10.5 16.0833 10.5833L10.5833 16.0833C10.4305 16.2361 10.236 16.3125 9.99992 16.3125C9.76381 16.3125 9.56937 16.2361 9.41659 16.0833Z" fill="white"/>
</svg>
